<?xml version="1.0" standalone="no"?>
<!DOCTYPE svg PUBLIC "-//W3C//DTD SVG 20010904//EN"
 "http://www.w3.org/TR/2001/REC-SVG-20010904/DTD/svg10.dtd">
<svg version="1.0" xmlns="http://www.w3.org/2000/svg"
 width="1018.000000pt" height="737.000000pt" viewBox="0 0 1018.000000 737.000000"
 preserveAspectRatio="xMidYMid meet">

<g transform="translate(0.000000,737.000000) scale(0.100000,-0.100000)"
fill="#ffffff" stroke="#ffffff" stroke-width="40px">
<path d="M1883 7079 c-41 -5 -112 -24 -165 -45 -51 -20 -176 -58 -278 -84
-246 -62 -306 -83 -365 -128 -65 -48 -110 -135 -132 -257 -15 -80 -15 -107 -4
-245 7 -85 17 -202 21 -260 5 -58 13 -121 19 -140 14 -50 26 -168 63 -665 6
-82 13 -350 15 -593 4 -369 2 -447 -10 -460 -30 -36 -214 -358 -344 -602 -22
-41 -51 -93 -64 -115 -65 -112 -69 -125 -109 -330 -6 -27 -17 -147 -25 -265
-8 -118 -19 -278 -25 -355 -5 -77 -9 -254 -9 -393 1 -290 -3 -277 98 -331 200
-106 481 -161 682 -132 118 18 184 47 432 190 22 12 78 42 125 68 48 25 116
63 152 83 36 21 110 60 165 88 55 27 109 59 119 71 11 11 25 21 33 21 15 0 14
-5 -12 -145 -7 -38 -16 -87 -19 -107 -8 -45 -46 -74 -182 -140 -90 -44 -131
-61 -284 -118 -47 -18 -130 -51 -185 -75 -55 -23 -138 -57 -185 -75 -305 -116
-324 -125 -366 -166 -51 -50 -106 -160 -170 -339 -105 -296 -108 -314 -70
-442 38 -127 73 -192 138 -254 65 -63 111 -89 158 -89 70 0 251 89 560 277 63
38 169 101 235 140 113 66 159 92 280 158 28 15 68 38 90 51 77 44 125 55 285
65 211 12 279 40 360 148 19 25 84 96 145 156 80 80 130 121 185 151 337 185
383 212 412 245 25 29 35 33 145 49 124 19 225 48 283 82 58 34 127 116 168
197 l39 76 64 -2 c35 -1 175 -9 311 -18 136 -8 292 -15 347 -15 85 0 102 -3
109 -17 5 -10 13 -77 17 -149 5 -103 4 -133 -7 -141 -7 -6 -74 -19 -148 -28
-74 -9 -216 -27 -315 -40 -350 -48 -422 -56 -605 -66 -457 -25 -448 -24 -479
-53 -45 -43 -93 -227 -106 -408 -6 -88 -5 -102 15 -143 29 -59 111 -133 153
-137 18 -2 77 2 132 9 55 6 163 16 240 23 320 26 372 32 469 55 232 55 441 70
606 44 95 -14 121 -10 265 50 151 63 304 107 422 122 100 13 245 3 362 -26 31
-8 117 -28 191 -45 74 -17 207 -49 295 -70 186 -45 264 -61 435 -90 69 -12
233 -46 365 -75 132 -29 265 -58 295 -64 30 -6 143 -29 250 -51 107 -23 233
-50 280 -60 141 -29 223 -34 262 -16 78 38 175 260 122 280 -25 9 -39 -8 -64
-76 -30 -81 -67 -137 -97 -144 -35 -9 -159 11 -423 68 -129 28 -278 59 -330
68 -52 10 -144 30 -205 45 -181 42 -232 53 -415 84 -96 17 -261 51 -365 76
-105 25 -219 52 -255 60 -36 8 -132 31 -215 50 -172 41 -321 65 -400 65 -113
0 -383 -67 -520 -130 -129 -59 -148 -62 -268 -49 -129 14 -352 7 -447 -15
-252 -58 -297 -65 -450 -75 -91 -6 -235 -18 -320 -26 -85 -9 -162 -16 -170
-17 -43 -4 -65 6 -101 43 -21 22 -39 44 -39 49 0 15 70 67 154 114 75 43 86
46 152 46 55 0 77 4 95 19 21 17 22 21 9 36 -12 15 -28 17 -105 13 -95 -4
-133 -19 -253 -99 -24 -16 -47 -29 -53 -29 -11 0 -12 70 -1 86 4 5 47 36 95
68 l89 58 141 -4 c140 -3 142 -3 145 19 5 34 -23 41 -174 45 l-139 3 -59 -42
c-33 -24 -63 -43 -68 -43 -13 0 -9 32 13 102 33 105 16 98 249 108 225 10 475
31 645 54 61 9 209 27 330 41 345 39 365 43 377 74 19 48 -1 393 -44 766 -6
55 -12 177 -12 270 -1 190 3 204 79 293 103 119 532 358 866 480 219 81 432
106 520 61 112 -57 201 -216 344 -614 26 -71 76 -189 111 -261 54 -109 64
-138 64 -182 0 -48 2 -52 23 -52 28 0 47 34 47 84 0 20 -26 85 -69 172 -37 76
-79 168 -91 204 -138 395 -241 598 -347 680 -182 139 -576 40 -1212 -302 -177
-96 -322 -223 -374 -327 l-32 -66 2 -165 c0 -91 8 -235 18 -320 9 -85 19 -188
22 -227 l6 -73 -129 0 c-168 0 -646 29 -658 40 -5 5 5 51 23 107 59 187 72
271 47 292 -12 10 -19 8 -35 -8 -12 -12 -21 -30 -21 -40 0 -55 -89 -335 -146
-458 -24 -52 -73 -123 -103 -150 -62 -55 -214 -104 -366 -118 -94 -8 -103 -12
-120 -45 -16 -31 -104 -87 -290 -185 -60 -32 -137 -76 -170 -98 -69 -47 -199
-174 -269 -264 -47 -60 -101 -104 -152 -123 -14 -6 -92 -15 -172 -20 -200 -14
-243 -28 -454 -149 -21 -11 -55 -30 -75 -42 -84 -47 -321 -186 -438 -257 -49
-30 -103 -63 -120 -72 -16 -10 -55 -32 -85 -50 -100 -60 -241 -120 -279 -120
-41 1 -74 21 -69 43 6 27 211 237 231 237 10 0 41 -11 69 -25 54 -27 73 -31
83 -15 12 20 -6 48 -43 65 -20 10 -50 23 -66 31 -60 29 -76 21 -183 -88 -56
-57 -112 -116 -125 -132 -15 -17 -30 -26 -37 -22 -16 10 -61 101 -61 123 0 10
43 56 97 103 54 47 130 118 170 159 86 87 93 87 177 10 59 -54 76 -56 76 -9 0
21 -12 38 -46 69 -56 49 -128 86 -147 74 -8 -4 -72 -63 -143 -130 -71 -67
-147 -136 -169 -153 -37 -29 -40 -30 -52 -14 -18 25 -16 101 5 155 13 36 42
71 130 153 62 58 124 109 139 112 14 4 55 2 90 -5 69 -13 83 -10 83 18 0 31
-23 40 -112 47 -98 8 -120 -1 -193 -75 -33 -34 -65 -53 -65 -37 0 13 86 218
106 252 36 63 68 84 204 138 69 27 202 80 295 119 94 38 222 88 285 112 224
83 389 167 443 223 22 22 31 48 46 132 71 383 68 372 114 465 46 93 90 197
134 320 14 39 40 100 59 137 33 68 35 92 8 102 -35 13 -63 -39 -179 -339 -61
-155 -109 -251 -179 -358 l-56 -86 -118 -59 c-64 -33 -179 -94 -256 -136 -76
-42 -140 -76 -142 -76 -2 0 -43 -24 -91 -53 -118 -71 -205 -115 -272 -139 -65
-22 -281 -35 -346 -21 -38 8 -40 11 -47 53 -11 72 -48 333 -50 360 -4 32 -25
42 -183 80 -188 46 -175 37 -175 117 0 38 6 154 14 258 8 105 18 242 21 305 7
119 37 332 56 391 15 47 29 76 65 134 17 28 56 97 86 155 30 58 91 172 136
253 45 81 82 151 82 156 0 8 64 107 109 167 l23 31 -5 449 c-5 458 -18 714
-57 1064 -11 102 -27 205 -34 230 -8 25 -17 99 -20 165 -19 384 -19 378 -2
464 36 178 95 221 408 296 103 24 233 62 289 85 123 48 234 65 334 51 36 -5
78 -17 92 -26 41 -28 63 -96 88 -285 21 -153 52 -344 69 -430 33 -163 57 -360
57 -465 0 -95 -3 -120 -26 -180 -42 -111 -74 -205 -95 -280 -13 -47 -32 -86
-57 -117 -21 -25 -58 -76 -83 -113 -25 -36 -64 -92 -87 -124 -69 -98 -152
-249 -178 -325 -19 -56 -25 -96 -26 -183 -1 -62 -5 -115 -8 -120 -3 -4 -67 -8
-141 -9 -93 -1 -163 -7 -225 -20 -85 -19 -90 -21 -93 -47 -5 -38 17 -43 99
-23 119 29 219 39 294 30 l70 -9 12 -115 c27 -270 58 -422 108 -536 51 -118
209 -182 460 -187 94 -2 103 0 154 28 111 62 221 190 366 427 6 9 44 67 86
130 42 62 94 145 116 183 149 258 185 315 206 319 12 3 49 8 82 11 32 4 86 15
120 25 59 18 255 44 428 56 123 10 142 27 193 177 27 79 100 221 164 319 47
72 56 78 325 218 367 192 515 255 633 271 42 5 217 14 387 19 210 6 355 15
450 29 340 48 447 56 601 42 135 -12 263 -45 357 -92 183 -93 347 -241 442
-401 68 -113 196 -371 279 -558 38 -85 79 -177 91 -205 12 -27 26 -61 30 -75
4 -14 13 -38 21 -55 7 -16 33 -79 58 -140 24 -60 83 -204 131 -320 97 -236
130 -321 216 -550 33 -88 79 -207 101 -265 22 -58 78 -215 124 -350 126 -371
125 -369 194 -384 33 -7 157 -90 212 -141 80 -75 133 -113 216 -154 112 -56
220 -81 353 -81 117 0 125 -4 148 -70 19 -52 25 -223 12 -324 -6 -49 -15 -182
-21 -295 -14 -276 -16 -284 -50 -321 -24 -26 -35 -30 -82 -30 -29 0 -134 18
-233 41 -99 22 -252 53 -341 68 -88 16 -181 38 -206 49 -45 19 -47 23 -67 89
-39 136 -53 230 -52 376 0 78 5 158 10 177 22 71 11 108 -28 95 -65 -20 -68
-418 -5 -633 34 -119 54 -162 76 -162 12 0 51 -9 87 -19 36 -11 91 -22 121
-26 83 -9 148 -23 350 -73 149 -37 203 -46 277 -46 106 -1 132 11 172 83 22
40 25 62 37 289 7 136 19 289 25 340 14 112 7 268 -16 340 -9 29 -29 67 -45
85 l-28 32 -149 6 c-231 10 -338 55 -526 222 -67 60 -190 142 -238 159 -14 5
-32 21 -39 36 -7 15 -57 160 -112 322 -55 162 -119 345 -143 405 -23 61 -50
133 -59 160 -9 28 -20 59 -25 70 -5 11 -57 142 -116 290 -59 149 -114 284
-121 300 -16 38 -196 474 -239 580 -85 211 -293 630 -370 745 -89 133 -194
232 -335 318 -124 76 -201 107 -347 142 -133 32 -381 28 -660 -9 -290 -39
-315 -41 -478 -41 -224 -1 -472 -19 -545 -40 -36 -10 -117 -42 -180 -70 -105
-47 -422 -203 -445 -220 -5 -4 -55 -31 -110 -60 -119 -62 -135 -76 -190 -160
-58 -88 -100 -172 -160 -320 -58 -141 -54 -137 -170 -139 -38 0 -105 -6 -147
-13 -43 -6 -81 -8 -85 -5 -3 4 4 28 18 55 21 42 24 59 23 157 -1 120 -25 226
-131 575 -28 91 -67 226 -88 300 -86 314 -127 360 -309 348 -178 -12 -406
-180 -676 -498 -137 -163 -153 -180 -167 -180 -11 0 -11 4 1 28 28 55 77 207
85 266 14 100 -6 285 -69 626 -37 204 -55 311 -75 450 -32 219 -77 269 -260
283 -33 3 -93 1 -132 -4z m1418 -1056 c42 -25 63 -83 184 -508 20 -71 52 -179
70 -240 58 -189 77 -277 82 -380 5 -88 3 -107 -16 -147 -41 -91 -107 -121
-304 -140 -201 -20 -375 12 -445 81 -42 42 -47 54 -127 341 -26 91 -54 173
-62 183 -30 33 -65 21 -124 -40 -123 -129 -215 -261 -304 -438 -72 -143 -84
-173 -120 -287 -35 -113 -34 -224 4 -276 29 -41 139 -97 223 -113 78 -16 195
-6 245 19 91 47 205 136 280 220 43 47 111 121 151 163 73 76 74 77 115 72 23
-3 44 -7 46 -9 5 -4 -153 -269 -238 -399 -36 -55 -72 -112 -80 -126 -9 -14
-62 -93 -118 -176 -140 -203 -216 -277 -320 -308 -37 -11 -61 -10 -167 6 -67
10 -148 28 -179 39 -68 25 -122 81 -137 142 -6 24 -19 66 -29 93 -44 116 -86
651 -62 780 16 87 84 219 204 394 127 185 154 219 393 496 29 33 69 80 89 105
61 74 236 252 296 303 62 51 194 132 249 153 52 19 166 18 201 -3z m-671 -964
c0 -12 -17 -42 -39 -68 -139 -166 -289 -462 -307 -606 -7 -54 -18 -75 -40 -75
-26 0 -26 50 0 154 43 172 141 353 299 554 51 64 87 82 87 41z m-1925 -2989
c4 -6 -1 -21 -9 -33 -9 -12 -31 -43 -48 -69 -33 -51 -68 -65 -68 -27 0 25 14
53 52 102 29 36 60 48 73 27z"/>
<path d="M3250 5783 c0 -16 10 -53 21 -83 47 -123 112 -318 145 -438 19 -69
38 -130 43 -135 18 -18 51 3 51 33 0 50 -54 226 -147 475 -61 165 -67 175 -94
175 -14 0 -19 -7 -19 -27z"/>
<path d="M1145 7060 c-3 -5 -2 -10 4 -10 5 0 13 5 16 10 3 6 2 10 -4 10 -5 0
-13 -4 -16 -10z"/>
<path d="M1840 6867 c-36 -14 -112 -44 -170 -68 -58 -23 -163 -64 -235 -89
-117 -42 -130 -49 -133 -72 -2 -16 3 -28 13 -32 19 -7 121 26 290 96 320 131
352 140 408 113 39 -18 57 -14 57 14 0 59 -119 78 -230 38z"/>
<path d="M6490 5494 c0 -34 14 -41 94 -49 43 -4 110 -16 150 -27 93 -26 293
-119 379 -177 108 -74 124 -82 141 -75 73 28 -100 153 -380 274 -75 33 -196
61 -290 67 -88 6 -94 5 -94 -13z"/>
<path d="M4920 5332 c-52 -32 -135 -85 -185 -118 -49 -33 -123 -80 -162 -103
-59 -34 -73 -46 -73 -66 0 -41 35 -30 162 48 310 190 387 241 393 255 6 16
-11 42 -29 42 -6 -1 -54 -27 -106 -58z"/>
<path d="M3708 3905 c-244 -44 -390 -103 -371 -150 7 -20 20 -17 116 19 38 15
126 38 195 53 107 22 154 26 301 27 l173 1 44 -49 c42 -48 104 -164 145 -269
11 -29 24 -61 29 -72 5 -11 39 -92 76 -180 98 -231 134 -299 162 -303 41 -6
37 25 -21 151 -31 67 -90 205 -132 307 -92 225 -143 329 -192 394 -66 86 -71
88 -239 92 -127 3 -170 0 -286 -21z"/>
<path d="M1152 3863 c-16 -21 -80 -105 -142 -188 -63 -82 -124 -161 -137 -175
-13 -14 -32 -49 -44 -79 -30 -80 -91 -466 -93 -586 -1 -34 2 -40 21 -43 36 -5
38 3 74 278 13 105 48 297 59 325 4 11 68 101 142 200 179 241 199 271 192
289 -10 27 -41 18 -72 -21z"/>
<path d="M6235 3355 c-195 -55 -380 -131 -391 -160 -4 -9 0 -23 8 -31 13 -14
29 -10 134 35 65 27 169 64 229 81 61 18 120 36 133 41 39 15 22 61 -21 58 -7
0 -48 -11 -92 -24z"/>
<path d="M1576 3130 c-16 -10 -66 -30 -111 -44 -109 -34 -135 -55 -135 -109 0
-23 12 -81 26 -129 l27 -87 -41 -54 c-57 -74 -68 -107 -47 -147 20 -39 101
-92 135 -88 26 3 31 12 75 113 36 82 55 100 151 136 46 17 91 40 100 50 16 18
16 23 0 92 -10 39 -22 112 -26 161 -5 50 -14 94 -22 101 -24 22 -100 25 -132
5z m74 -129 c0 -10 -5 -42 -10 -72 -8 -43 -19 -62 -58 -101 -62 -64 -75 -60
-78 21 -3 77 5 95 55 120 20 11 43 27 50 35 18 22 41 20 41 -3z"/>
<path d="M2326 2872 c-3 -6 -21 -50 -40 -98 -19 -49 -53 -129 -76 -179 l-41
-90 -144 -95 c-136 -90 -164 -117 -150 -140 14 -23 59 -6 161 63 192 129 191
129 210 177 9 25 28 70 41 100 55 121 94 226 91 245 -3 21 -42 34 -52 17z"/>
<path d="M5910 2510 c-6 -11 -21 -156 -35 -322 -13 -167 -30 -365 -36 -440 -6
-75 -9 -144 -6 -152 8 -21 44 -20 55 2 5 9 12 55 16 102 3 47 13 162 21 255
27 326 37 545 24 561 -16 19 -26 18 -39 -6z"/>
<path d="M4168 2403 c-8 -10 -21 -40 -27 -68 -7 -27 -24 -84 -37 -125 l-24
-75 -136 -89 c-121 -80 -135 -92 -132 -115 2 -14 10 -27 19 -29 15 -3 258 153
290 186 23 23 102 287 94 312 -8 25 -27 26 -47 3z"/>
<path d="M4559 2254 c-9 -11 -10 -20 -2 -32 9 -15 31 -17 189 -14 98 2 183 7
187 12 5 4 7 16 5 26 -3 18 -17 19 -184 22 -156 2 -183 0 -195 -14z"/>
<path d="M8923 2014 c-10 -26 26 -83 97 -155 87 -89 125 -106 267 -125 65 -8
124 -21 132 -27 11 -9 12 -32 7 -110 -4 -55 -12 -108 -19 -118 -16 -26 2 -54
34 -54 35 0 47 49 51 195 3 120 3 123 -22 141 -16 12 -63 24 -135 35 -60 8
-124 17 -141 20 -42 6 -141 88 -188 157 -40 58 -71 73 -83 41z"/>
</g>
</svg>
